<?xml version="1.0" encoding="iso-8859-1"?>
<!-- Generator: Adobe Illustrator 19.0.0, SVG Export Plug-In . SVG Version: 6.00 Build 0)  -->
<svg version="1.1" id="Capa_1" xmlns="http://www.w3.org/2000/svg" xmlns:xlink="http://www.w3.org/1999/xlink" x="0px" y="0px"
	 viewBox="0 0 512 512" style="enable-background:new 0 0 512 512;" xml:space="preserve">
<path style="fill:#FFD2C0;" d="M427.136,88.765L427.136,88.765c-11.705-4.253-24.641,1.787-28.895,13.492l-35.893,94.873
	c-1.277,3.374-4.508,5.606-8.115,5.606h-4.669c-5.206,0-9.24-4.552-8.614-9.72l15.602-128.829
	c1.497-13.165-7.961-25.052-21.126-26.549c-13.165-1.498-25.052,7.961-26.549,21.127L294.63,176.408
	c-0.528,4.357-4.225,7.634-8.614,7.634l0,0c-4.792,0-8.677-3.885-8.677-8.677V32.067c0-13.009-10.116-24.089-23.117-24.551
	c-13.649-0.485-24.867,10.435-24.867,23.976v143.873c0,4.792-3.885,8.677-8.677,8.677h-2.894c-4.452,0-8.182-3.369-8.632-7.799
	L197.098,57.758c-1.26-13.19-12.974-22.861-26.164-21.601s-22.861,12.974-21.601,26.164l16.8,157.958v25.576l-57.772-57.772
	c-11.679-11.679-30.615-11.679-42.294,0l0,0c-11.679,11.679-11.679,30.615,0,42.294l58.562,58.562l41.505,63.16v25.433v30.128v96.84
	h193.868v-89.728c0-16.53,5.499-32.59,15.63-45.652l0,0c10.131-13.062,15.63-29.122,15.63-45.652V248.15l49.368-130.491
	C444.882,105.954,438.841,93.018,427.136,88.765z"/>
<g>
	<path style="fill:#EAA28F;" d="M331.702,64.187L316.1,193.016c-0.626,5.168,3.408,9.72,8.614,9.72h4.669
		c3.608,0,6.839-2.232,8.115-5.606l4.345-11.485l14.709-121.459c1.497-13.165-7.961-25.052-21.126-26.549
		c-5.487-0.624-10.749,0.66-15.132,3.318C328.051,45.661,332.795,54.581,331.702,64.187z"/>
	<path style="fill:#EAA28F;" d="M252.489,32.067v143.298c0,4.792,3.885,8.677,8.677,8.677l0,0c4.389,0,8.086-3.277,8.614-7.633
		l7.559-62.42v-81.92c0-13.009-10.116-24.089-23.117-24.551c-4.91-0.175-9.502,1.133-13.373,3.502
		C247.862,15.364,252.489,23.272,252.489,32.067z"/>
	<path style="fill:#EAA28F;" d="M427.136,88.765L427.136,88.765c-6.971-2.533-14.377-1.414-20.127,2.377
		c8.515,5.613,12.405,16.513,8.77,26.518l-49.368,130.49v75.318c0,16.53-5.498,32.59-15.63,45.652
		c-10.131,13.062-15.63,29.122-15.63,45.652V504.5h24.85v-89.728c0-16.53,5.499-32.59,15.63-45.652s15.63-29.122,15.63-45.652
		V248.15l49.368-130.491C444.882,105.954,438.841,93.018,427.136,88.765z"/>
	<path style="fill:#EAA28F;" d="M172.248,57.758l12.055,118.485c0.451,4.429,4.18,7.798,8.632,7.798h2.894
		c4.792,0,8.677-3.885,8.677-8.677v-44.799l-7.408-72.808c-1.26-13.19-12.974-22.862-26.164-21.602
		c-3.718,0.355-7.155,1.541-10.148,3.356C167.047,43.308,171.499,49.91,172.248,57.758z"/>
</g>
<path style="fill:#4FA6DB;" d="M385.681,351.704c-0.258,0.622-0.516,1.244-0.798,1.866c-0.129,0.305-0.27,0.61-0.411,0.916
	c-0.188,0.434-0.387,0.857-0.599,1.28c-0.199,0.411-0.399,0.822-0.599,1.221c-2.136,4.261-4.684,8.322-7.642,12.137
	c-10.13,13.053-15.635,29.123-15.635,45.65v24.345L166.13,245.861v-12.208C305.92,235.79,385.681,351.704,385.681,351.704z"/>
<path style="fill:#3E91D9;" d="M350.781,369.12c-10.047,12.953-15.53,28.855-15.621,45.239l24.838,24.759v-24.345
	c0-9.183,1.705-18.223,4.954-26.685c2.596-6.766,6.178-13.165,10.68-18.969c0.186-0.24,0.36-0.489,0.543-0.732
	c0.486-0.643,0.97-1.288,1.433-1.944c0.23-0.326,0.448-0.66,0.673-0.989c0.432-0.634,0.86-1.269,1.271-1.914
	c0.176-0.276,0.346-0.556,0.518-0.834c0.471-0.762,0.932-1.529,1.374-2.306c0.091-0.16,0.182-0.321,0.272-0.481
	c0.54-0.967,1.064-1.943,1.56-2.932c0.2-0.399,0.399-0.81,0.599-1.221c0.211-0.423,0.411-0.845,0.599-1.279
	c0.141-0.305,0.282-0.61,0.411-0.916c0.282-0.622,0.54-1.244,0.798-1.866c0,0-6.647-9.65-19.441-23.421
	C365.279,343.098,359.925,357.331,350.781,369.12z"/>
<path style="fill:#7EBFE7;" d="M166.133,351.708v0.391v25.433v30.128v3.521h193.963c0.736-15.254,6.139-29.948,15.534-42.062l0,0
	c4.154-5.356,7.515-11.222,10.052-17.411L166.133,351.708L166.133,351.708z"/>
<path style="fill:#3E91D9;" d="M350.781,369.12c-9.396,12.113-14.798,26.807-15.534,42.062h24.85c0-0.005,0.001-0.009,0.001-0.009
	c0.223-4.6,0.875-9.141,1.927-13.579c0.047-0.198,0.089-0.398,0.138-0.597c0.164-0.667,0.344-1.33,0.526-1.992
	c0.08-0.29,0.156-0.58,0.239-0.869c0.175-0.607,0.363-1.209,0.553-1.811c0.107-0.34,0.214-0.681,0.326-1.02
	c0.187-0.563,0.384-1.123,0.584-1.682c0.134-0.372,0.268-0.745,0.408-1.115c0.199-0.528,0.405-1.053,0.616-1.577
	c0.16-0.397,0.323-0.793,0.49-1.188c0.21-0.496,0.424-0.989,0.644-1.479c0.188-0.419,0.382-0.835,0.577-1.25
	c0.218-0.464,0.439-0.926,0.667-1.385c0.218-0.438,0.444-0.873,0.67-1.308c0.225-0.432,0.45-0.864,0.684-1.291
	c0.251-0.458,0.512-0.912,0.772-1.365c0.228-0.397,0.453-0.796,0.689-1.189c0.293-0.488,0.598-0.97,0.902-1.452
	c0.222-0.351,0.438-0.706,0.666-1.054c0.358-0.546,0.731-1.084,1.104-1.622c0.192-0.276,0.376-0.557,0.571-0.831
	c0.577-0.809,1.17-1.609,1.781-2.397l0,0c0.009-0.011,0.017-0.023,0.026-0.034c0.568-0.733,1.118-1.478,1.656-2.23
	c0.209-0.292,0.41-0.589,0.615-0.883c0.322-0.464,0.641-0.929,0.952-1.399c0.254-0.385,0.504-0.773,0.751-1.162
	c0.231-0.363,0.456-0.729,0.681-1.095c0.286-0.47,0.572-0.939,0.847-1.415c0.129-0.222,0.253-0.447,0.38-0.671
	c1.561-2.757,2.948-5.602,4.145-8.523h-24.85C358.296,357.898,354.935,363.764,350.781,369.12z"/>
<path style="fill:#7EBFE7;" d="M391.256,249.969v73.493c0,9.754-1.925,19.344-5.576,28.242c0,0-79.761-115.915-219.551-118.051
	v-13.37l-1.362-12.807C216.087,206.385,310.087,203.697,391.256,249.969z"/>
<path style="fill:#3E91D9;" d="M366.411,323.468c0,1.611-0.068,3.215-0.171,4.815c12.794,13.772,19.441,23.421,19.441,23.421
	c1.818-4.431,3.206-9.033,4.144-13.742c0.013-0.064,0.023-0.128,0.036-0.192c0.206-1.049,0.387-2.105,0.548-3.164
	c0.03-0.197,0.058-0.393,0.086-0.59c0.137-0.95,0.253-1.904,0.353-2.861c0.024-0.228,0.05-0.456,0.071-0.685
	c0.095-0.997,0.167-1.997,0.222-3c0.008-0.157,0.022-0.313,0.029-0.47c0.056-1.177,0.087-2.357,0.087-3.539v-73.493
	c-7.043-4.015-14.185-7.654-21.385-10.965l-3.46,9.146v75.319H366.411z"/>
<rect x="166.13" y="411.18" style="fill:#7EBFE7;" width="288.54" height="59.47"/>
<g>
	<rect x="359.53" y="411.18" style="fill:#4FA6DB;" width="27.498" height="59.47"/>
	<path style="fill:#4FA6DB;" d="M166.133,411.182v59.473h193.868v-55.883c0-1.2,0.038-2.396,0.095-3.59H166.133z"/>
</g>
<path style="fill:#3E91D9;" d="M335.247,411.182c-0.058,1.194-0.095,2.39-0.095,3.59v55.883h24.85v-55.883v-0.011
	c0-1.196,0.037-2.388,0.095-3.577v-0.001L335.247,411.182z"/>
<path d="M454.675,403.682h-86.237c1.67-9.871,5.544-19.331,11.329-27.539c0.055-0.078,0.106-0.157,0.161-0.235
	c0.527-0.741,1.069-1.472,1.628-2.192c0.639-0.824,1.258-1.663,1.865-2.512c0.182-0.254,0.357-0.513,0.536-0.769
	c0.426-0.611,0.846-1.226,1.256-1.848c0.188-0.287,0.374-0.574,0.559-0.863c0.404-0.631,0.798-1.267,1.185-1.909
	c0.155-0.258,0.313-0.515,0.465-0.775c0.474-0.807,0.934-1.622,1.381-2.445c0.048-0.089,0.099-0.176,0.147-0.265
	c0.522-0.971,1.023-1.952,1.507-2.945c0.013-0.026,0.024-0.053,0.037-0.079c0.453-0.933,0.886-1.878,1.304-2.83
	c0.07-0.159,0.137-0.32,0.206-0.479c0.208-0.481,0.421-0.958,0.62-1.444c0.014-0.035,0.023-0.072,0.036-0.107
	c0.078-0.191,0.144-0.385,0.221-0.577c0.246-0.617,0.481-1.238,0.712-1.86c0.218-0.586,0.438-1.171,0.643-1.76
	c0.147-0.424,0.28-0.852,0.419-1.278c0.885-2.692,1.629-5.417,2.227-8.171c0.049-0.227,0.104-0.452,0.151-0.679
	c0.169-0.815,0.319-1.633,0.464-2.452c0.072-0.404,0.143-0.807,0.209-1.212c0.116-0.719,0.221-1.44,0.318-2.163
	c0.075-0.562,0.142-1.124,0.206-1.688c0.067-0.597,0.134-1.194,0.188-1.793c0.074-0.814,0.129-1.629,0.178-2.446
	c0.023-0.378,0.054-0.754,0.072-1.133c0.059-1.254,0.095-2.509,0.095-3.767V249.52l48.917-129.3
	c5.658-15.573-2.407-32.847-17.98-38.506c-15.568-5.657-32.846,2.407-38.471,17.888l-35.894,94.873
	c-0.171,0.454-0.613,0.76-1.1,0.76h-4.669c-0.438,0-0.72-0.216-0.88-0.396c-0.16-0.181-0.341-0.487-0.288-0.922l15.608-128.883
	c0.95-8.358-1.411-16.586-6.648-23.168s-12.726-10.73-21.083-11.681c-8.36-0.952-16.586,1.411-23.168,6.648
	c-6.582,5.238-10.73,12.726-11.674,21.029l-14.247,117.644c-0.071,0.59-0.574,1.035-1.169,1.035c-0.648,0-1.177-0.528-1.177-1.177
	V32.067c0-17.076-13.615-31.451-30.35-32.046c-8.641-0.31-16.804,2.822-23.008,8.81c-6.207,5.989-9.625,14.037-9.625,22.661v143.873
	c0,0.648-0.528,1.177-1.177,1.177h-2.894c-0.606,0-1.11-0.455-1.171-1.058L204.564,57.045c-0.8-8.374-4.813-15.934-11.299-21.29
	c-6.487-5.356-14.675-7.864-23.044-7.065c-8.374,0.8-15.935,4.813-21.29,11.299c-5.355,6.487-7.864,14.671-7.057,23.124
	l15.43,145.071c0.003,0.028,0.002,0.057,0.005,0.085l1.32,12.411v7.064l-44.965-44.966c-7.065-7.065-16.459-10.956-26.451-10.956
	c-9.991,0-19.385,3.892-26.45,10.956c-14.584,14.585-14.584,38.315,0,52.901l58.02,58.019l39.851,60.644v56.839v59.473V504.5
	c0,4.143,3.357,7.5,7.5,7.5h193.868c4.143,0,7.5-3.357,7.5-7.5v-33.846v-51.973h79.673v44.473h-56.584c-4.143,0-7.5,3.357-7.5,7.5
	s3.357,7.5,7.5,7.5h64.084c4.143,0,7.5-3.357,7.5-7.5v-59.473C462.175,407.04,458.817,403.682,454.675,403.682z M352.502,463.155
	h-0.735H173.634v-44.473h178.868V463.155z M173.634,359.208h98.637c0.014,0,0.027,0.002,0.041,0.002s0.027-0.002,0.041-0.002
	h101.056c-0.076,0.12-0.148,0.242-0.225,0.362c-0.358,0.561-0.729,1.113-1.104,1.663c-0.196,0.287-0.386,0.579-0.587,0.863
	c-0.579,0.822-1.173,1.633-1.789,2.426c-0.651,0.84-1.28,1.693-1.896,2.553c-0.122,0.171-0.241,0.345-0.362,0.517
	c-0.541,0.768-1.068,1.543-1.581,2.327c-0.05,0.078-0.101,0.155-0.152,0.233c-6.594,10.143-10.833,21.534-12.455,33.53H173.634
	V359.208z M173.634,241.398c1.754,0.081,3.507,0.175,5.258,0.294c0.337,0.023,0.675,0.05,1.012,0.074
	c1.77,0.128,3.537,0.274,5.301,0.44c0.305,0.029,0.61,0.054,0.915,0.084c1.957,0.192,3.911,0.408,5.862,0.647
	c0.382,0.047,0.764,0.098,1.146,0.146c1.734,0.22,3.465,0.458,5.194,0.716c0.294,0.044,0.588,0.084,0.882,0.129
	c1.962,0.3,3.921,0.625,5.877,0.973c0.333,0.059,0.665,0.122,0.997,0.182c1.846,0.336,3.689,0.691,5.529,1.07
	c0.16,0.033,0.32,0.063,0.479,0.096c2.038,0.424,4.071,0.875,6.1,1.351c0.195,0.046,0.39,0.094,0.585,0.14
	c4.148,0.984,8.279,2.075,12.39,3.277c0.079,0.023,0.158,0.047,0.237,0.07c12.728,3.737,25.268,8.517,37.568,14.331
	c3.743,1.772,8.216,0.17,9.985-3.575c1.771-3.745,0.17-8.216-3.575-9.985c-9.061-4.283-18.251-8.018-27.544-11.238
	c-0.157-0.066-0.312-0.135-0.475-0.191c-0.794-0.273-1.591-0.531-2.386-0.797c-0.333-0.111-0.667-0.224-1-0.334
	c-4.03-1.329-8.081-2.563-12.155-3.693c-0.089-0.025-0.178-0.047-0.267-0.072c-1.851-0.511-3.707-0.999-5.566-1.468
	c-0.459-0.116-0.919-0.229-1.378-0.342c-1.546-0.382-3.094-0.749-4.645-1.102c-0.495-0.113-0.99-0.228-1.486-0.338
	c-1.831-0.406-3.664-0.794-5.502-1.16c-0.145-0.029-0.289-0.061-0.435-0.09c-1.964-0.388-3.932-0.748-5.902-1.09
	c-0.566-0.098-1.132-0.188-1.699-0.282c-1.409-0.235-2.82-0.46-4.233-0.671c-0.68-0.102-1.36-0.201-2.04-0.297
	c-1.397-0.198-2.796-0.382-4.197-0.557c-0.59-0.074-1.18-0.152-1.771-0.222c-1.982-0.234-3.965-0.45-5.952-0.638
	c-0.086-0.008-0.173-0.014-0.259-0.022c-1.915-0.179-3.832-0.333-5.751-0.469c-0.533-0.038-1.067-0.069-1.601-0.104
	c-1.526-0.099-3.053-0.186-4.581-0.258c-0.306-0.014-0.611-0.038-0.916-0.052v-6.092c0-0.265-0.014-0.529-0.042-0.793l-0.498-4.684
	c50.049-1.005,136.308-1.179,210.663,39.565v69.094c0,0.996-0.023,1.988-0.067,2.979c-0.01,0.219-0.029,0.437-0.041,0.656
	c-0.039,0.72-0.085,1.439-0.147,2.156c-0.044,0.497-0.101,0.993-0.156,1.49c-0.047,0.426-0.091,0.852-0.145,1.276
	c-0.081,0.62-0.174,1.238-0.272,1.854c-0.047,0.296-0.092,0.592-0.142,0.887c-0.044,0.255-0.097,0.508-0.144,0.762
	c-13.082-15.78-39.854-44.343-79.243-68.486c-3.529-2.166-8.148-1.057-10.313,2.476c-2.164,3.531-1.057,8.148,2.476,10.314
	c36.541,22.397,62.034,49.298,74.72,64.383h-94.872L173.634,242.75V241.398z M160.499,49.54c2.804-3.396,6.764-5.498,11.148-5.917
	c4.391-0.413,8.671,0.895,12.067,3.7c3.398,2.804,5.499,6.764,5.922,11.194l12.056,118.485c0.844,8.289,7.763,14.539,16.094,14.539
	h2.894c8.92,0,16.177-7.257,16.177-16.177V31.492c0-4.516,1.79-8.73,5.041-11.868c3.249-3.136,7.523-4.76,12.059-4.612
	c8.758,0.312,15.883,7.962,15.883,17.056v143.298c0,8.92,7.257,16.177,16.177,16.177c8.174,0,15.078-6.119,16.06-14.232
	l14.254-117.697c0.497-4.377,2.67-8.298,6.117-11.041c3.447-2.742,7.757-3.98,12.132-3.48c4.377,0.497,8.298,2.67,11.041,6.117
	c2.743,3.446,3.979,7.755,3.488,12.078l-15.602,128.829c-0.557,4.592,0.884,9.211,3.952,12.674c3.068,3.462,7.48,5.447,12.106,5.447
	h4.669c6.686,0,12.766-4.201,15.13-10.452l35.927-94.965c2.835-7.8,11.485-11.84,19.284-9.006c7.8,2.835,11.84,11.486,9.04,19.192
	l-46.889,123.938c-77.426-40.701-164.884-40.152-215.224-39.111L156.799,61.608C156.38,57.223,157.694,52.937,160.499,49.54z
	 M130.896,284.82c-0.28-0.427-0.604-0.823-0.964-1.184L71.37,225.075c-8.736-8.737-8.736-22.952,0-31.689
	c4.231-4.231,9.858-6.563,15.843-6.563s11.612,2.331,15.844,6.564l57.71,57.71c0.023,0.024,0.044,0.051,0.068,0.075l93.327,93.036
	h-84.24L130.896,284.82z M173.634,497v-18.846h178.133h0.735V497H173.634z"/>
<g>
</g>
<g>
</g>
<g>
</g>
<g>
</g>
<g>
</g>
<g>
</g>
<g>
</g>
<g>
</g>
<g>
</g>
<g>
</g>
<g>
</g>
<g>
</g>
<g>
</g>
<g>
</g>
<g>
</g>
</svg>
