<svg id="Capa_1" enable-background="new 0 0 512 512" height="512" viewBox="0 0 512 512" width="512" xmlns="http://www.w3.org/2000/svg"><g><g><circle cx="358.505" cy="409.407" fill="#f9f3f1" r="91.22"/></g><g><path d="m423.002 473.909c-35.622 35.622-93.375 35.622-128.997 0-1.281-1.281-2.522-2.602-3.703-3.944 35.622 25.353 85.367 22.05 117.306-9.889 34.321-34.321 35.572-89.201 3.743-125.023 4.084 2.903 7.987 6.186 11.651 9.849 35.633 35.623 35.633 93.385 0 129.007z" fill="#efe2dd"/></g><g><g><path d="m247.834 48.235c17.849-33.758 59.684-46.656 93.442-28.807l126.402 66.831c33.758 17.848 46.656 59.684 28.807 93.442-17.849 33.758-59.684 46.656-93.442 28.807l-126.402-66.831c-33.758-17.848-46.655-59.684-28.807-93.442z" fill="#fec165"/></g><g><path d="m496.489 179.702c-.591 1.121-1.211 2.222-1.882 3.303 7.477-30.117-6.156-62.567-34.822-77.721l-126.394-66.83c-32.64-17.256-72.816-5.775-91.563 25.503 1.321-5.345 3.313-10.63 6.005-15.724 17.846-33.761 59.684-46.652 93.445-28.806l126.405 66.831c33.751 17.846 46.652 59.684 28.806 93.444z" fill="#fdb441"/></g><g><path d="m339.842 175.093 64.635-122.25 63.201 33.415c33.758 17.848 46.656 59.684 28.807 93.442-17.849 33.758-59.684 46.656-93.442 28.807z" fill="#6bd9e7"/></g><g><path d="m496.489 179.702c-.33.631-.681 1.251-1.031 1.872-.27.48-.561.961-.851 1.431 7.477-30.117-6.156-62.567-34.822-77.721l-64.889-34.311 9.579-18.126 63.207 33.41c33.752 17.847 46.653 59.685 28.807 93.445z" fill="#2ed1e2"/></g></g><g><g><path d="m225.3 193.701c27.235 26.766 27.615 70.543.849 97.778l-100.223 101.977c-26.766 27.235-70.543 27.615-97.778.849-27.235-26.766-27.615-70.543-.849-97.778l100.223-101.977c26.766-27.235 70.543-27.615 97.778-.849z" fill="#7acaa6"/></g><g><path d="m28.146 394.308c-.905-.887-1.782-1.797-2.626-2.749 26.716 15.786 61.71 12.015 84.437-11.112l100.22-101.97c25.878-26.333 26.381-68.114 1.779-95.032 4.743 2.796 9.236 6.218 13.347 10.256 27.238 26.765 27.612 70.542.847 97.78l-100.223 101.98c-26.763 27.228-70.543 27.611-97.781.847z" fill="#57be92"/></g><g><path d="m77.411 245.538 98.627 96.93-50.111 50.988c-26.766 27.235-70.543 27.615-97.778.849-27.235-26.766-27.615-70.543-.849-97.778z" fill="#ee6161"/></g><g><path d="m28.146 394.308c-.51-.497-1.004-1.01-1.498-1.524-.383-.396-.76-.812-1.128-1.225 26.716 15.786 61.71 12.015 84.437-11.112l51.453-52.349 14.625 14.367-50.108 50.996c-26.763 27.228-70.543 27.611-97.781.847z" fill="#e94444"/></g></g><g><path d="m471.188 79.622-126.402-66.831c-18.099-9.569-38.844-11.518-58.407-5.486-19.565 6.032-35.61 19.321-45.18 37.421s-11.519 38.843-5.487 58.408 19.321 35.61 37.421 45.18l126.403 66.831c1.424.753 2.861 1.456 4.31 2.111 10.139 4.582 20.826 6.768 31.388 6.767 25.796 0 50.824-13.045 65.166-36.075.956-1.535 1.865-3.115 2.723-4.738 19.754-37.364 5.428-83.833-31.935-103.588zm-191.038 55.419c-14.555-7.695-25.241-20.597-30.092-36.33-4.85-15.733-3.283-32.413 4.412-46.967 7.695-14.554 20.598-25.241 36.331-30.091 5.998-1.849 12.131-2.766 18.234-2.766 9.906 0 19.727 2.415 28.732 7.177l56.565 29.907-57.617 108.977zm209.7 41.151c-15.886 30.045-53.253 41.563-83.297 25.68l-56.565-29.907 57.617-108.976 56.564 29.906c30.045 15.885 41.566 53.252 25.681 83.297z"/><path d="m180.05 166.432c-4.102-.17-7.641 3.045-7.813 7.188-.173 4.142 3.045 7.64 7.187 7.813 15.276.637 29.7 6.895 40.614 17.622 11.742 11.54 18.287 26.961 18.43 43.425.143 16.463-6.133 31.996-17.674 43.738l-44.849 45.634-87.918-86.406 44.849-45.635c4.803-4.887 10.313-8.903 16.376-11.937 3.708-1.855 5.21-6.365 3.354-10.072-1.854-3.708-6.364-5.208-10.072-3.355-7.548 3.776-14.4 8.769-20.367 14.84l-100.222 101.978c-21.292 21.665-27.063 52.879-17.432 79.723 3.769 10.504 9.896 20.339 18.373 28.671.902.887 1.823 1.749 2.761 2.586 17.343 15.473 41.345 22.7 64.217 18.261 15.725-3.052 30.134-10.306 41.417-21.787l100.221-101.977c14.352-14.602 22.157-33.919 21.98-54.392-.178-20.473-8.317-39.651-22.92-54.002-13.574-13.341-31.513-21.124-50.512-21.916zm-59.478 221.762c-11.451 11.652-27.168 18.289-43.424 18.43-16.43.111-31.996-6.134-43.738-17.674-24.239-23.822-24.578-62.923-.755-87.163l44.848-45.634 87.918 86.406c0 .001-44.841 45.627-44.849 45.635z"/><path d="m288.694 339.597c-20.344 20.344-30.783 48.481-28.641 77.196.308 4.133 3.893 7.234 8.044 6.927 4.135-.308 7.236-3.91 6.928-8.044-1.817-24.352 7.035-48.212 24.286-65.463 32.639-32.639 85.749-32.639 118.388 0 32.64 32.64 32.64 85.749 0 118.389-15.811 15.811-36.833 24.519-59.194 24.519-22.36 0-43.382-8.708-59.193-24.519-6.527-6.527-11.884-13.992-15.923-22.187-1.833-3.719-6.333-5.247-10.052-3.415-3.719 1.833-5.248 6.333-3.415 10.052 4.766 9.671 11.082 18.475 18.773 26.166 18.647 18.647 43.44 28.916 69.81 28.916s51.164-10.269 69.812-28.916c38.493-38.493 38.493-101.127 0-139.621-38.497-38.493-101.129-38.493-139.623 0z"/><path d="m391.237 449.646c1.921 0 3.842-.733 5.309-2.199 2.931-2.931 2.931-7.685 0-10.616l-65.465-65.465c-2.932-2.931-7.685-2.931-10.617 0-2.931 2.931-2.931 7.685 0 10.616l65.465 65.465c1.466 1.466 3.388 2.199 5.308 2.199z"/></g></g></svg>