<?xml version="1.0" encoding="iso-8859-1"?>
<!-- Generator: Adobe Illustrator 19.0.0, SVG Export Plug-In . SVG Version: 6.00 Build 0)  -->
<svg version="1.1" id="Capa_1" xmlns="http://www.w3.org/2000/svg" xmlns:xlink="http://www.w3.org/1999/xlink" x="0px" y="0px"
	 viewBox="0 0 512.003 512.003" style="enable-background:new 0 0 512.003 512.003;" xml:space="preserve">
<path style="fill:#4DBBEB;" d="M392.848,62.309l-95.38,16.83c-16.16,2.86-31.06,10.61-42.66,22.22l-17.53,17.52
	c-15.62,15.62-15.62,40.95,0,56.57c-7.81-7.81-18.04-11.72-28.28-11.72s-20.47,3.91-28.28,11.72c-15.63,15.62-15.63,40.95,0,56.57
	c-15.617-15.597-40.941-15.629-56.57,0c-15.62,15.62-15.62,40.95,0,56.57c-15.62-15.62-40.95-15.62-56.57,0l-40.29,40.28
	c-23.43,23.43-23.43,61.42,0,84.86l70.71,70.71c23.44,23.43,61.43,23.43,84.86,0l40.28-40.29c15.62-15.62,15.62-40.95,0-56.57
	c15.606,15.606,40.949,15.62,56.57,0c15.62-15.62,15.62-40.94,0-56.57c15.594,15.613,40.949,15.64,56.57,0
	c15.62-15.62,15.62-40.94,0-56.56c15.62,15.62,40.95,15.62,56.57,0l17.52-17.53c11.61-11.6,19.36-26.5,22.22-42.66l16.83-95.38
	L392.848,62.309z"/>
<path style="fill:#ADE6FF;" d="M496.258,383.329c3.48,6.81,5.44,14.53,5.44,22.7c0,27.61-22.39,50-50,50s-50-22.39-50-50
	c0-8.17,1.96-15.89,5.44-22.7l44.56-87.3L496.258,383.329z"/>
<path style="fill:#ED5151;" d="M495.839,72.459c7.81,7.81,7.81,20.47,0,28.28l-18.14,18.14c-7.81,7.81-20.47,7.81-28.28,0
	l-56.57-56.57c-7.81-7.81-7.81-20.47,0-28.28l18.14-18.14c7.81-7.81,20.47-7.81,28.28,0L495.839,72.459z"/>
<path d="M378.958,232.019c3.9-3.91,3.9-10.24,0-14.14c-3.91-3.91-10.24-3.91-14.15,0c-3.9,3.9-3.9,10.23,0,14.14
	C368.718,235.929,375.048,235.929,378.958,232.019z"/>
<path d="M20.466,420.801l70.712,70.711c27.297,27.284,71.706,27.291,99.002-0.002l40.279-40.29
	c11.548-11.548,16.253-27.387,14.119-42.433c15.591,2.199,31.173-2.859,42.45-14.136c11.544-11.544,16.248-27.379,14.117-42.425
	c15.508,2.19,31.114-2.794,42.454-14.145c11.545-11.545,16.249-27.378,14.119-42.42c15.655,2.21,31.214-2.903,42.454-14.143
	l17.515-17.524c13.118-13.106,21.762-29.702,24.999-47.997l14.47-82.005c9.933,2.239,20.41-0.587,27.864-8.041l18.14-18.14
	c11.724-11.724,11.726-30.697,0-42.422L446.589,8.818c-11.724-11.722-30.697-11.726-42.423,0l-18.14,18.14
	c-7.438,7.438-10.285,17.911-8.041,27.863l-82.012,14.471c-18.29,3.237-34.885,11.882-47.985,24.994l-17.532,17.522
	c-11.546,11.546-16.251,27.381-14.121,42.424c-15.155-2.14-30.858,2.565-42.438,14.144c-11.563,11.556-16.291,27.246-14.152,42.433
	c-15.149-2.131-30.848,2.568-42.419,14.139c-11.234,11.234-16.351,26.789-14.141,42.449c-15.045-2.132-30.881,2.573-42.429,14.12
	l-40.291,40.281C-6.821,349.087-6.822,393.499,20.466,420.801z M400.171,41.1l18.14-18.14c3.909-3.908,10.23-3.907,14.138,0
	l56.569,56.571c3.901,3.902,3.916,10.221,0,14.138l-18.14,18.14c-3.908,3.907-10.229,3.908-14.138,0l0,0l-56.57-56.571
	C396.262,51.329,396.261,45.009,400.171,41.1z M244.598,125.952l17.535-17.525c10.19-10.2,23.099-16.922,37.322-19.44l90.254-15.925
	l49.207,49.208l-15.924,90.248c-2.518,14.229-9.24,27.137-19.446,37.333l-17.518,17.527c-11.697,11.698-30.73,11.698-42.428,0
	l-99-99C232.902,156.68,232.902,137.648,244.598,125.952z M188.04,182.52c11.729-11.729,30.687-11.731,42.418,0l99,99
	c11.695,11.694,11.695,30.723-0.004,42.422c-11.711,11.725-30.707,11.727-42.424-0.004l-98.993-98.992
	C176.309,213.226,176.303,194.248,188.04,182.52z M131.469,239.09c11.713-11.714,30.681-11.718,42.419-0.007
	c0.003,0.003,0.005,0.005,0.008,0.008l98.986,98.985l0.001,0.001c0,0,0,0,0,0.001c11.695,11.703,11.696,30.736,0.002,42.43
	c-11.692,11.692-30.686,11.741-42.427,0l-98.99-98.99C119.748,269.796,119.745,250.815,131.469,239.09z M74.9,295.66
	c11.697-11.698,30.73-11.698,42.428,0l98.99,98.989c11.697,11.698,11.697,30.731-0.001,42.429l-40.279,40.289
	c-19.492,19.493-51.218,19.492-70.718,0L34.611,406.66c-19.493-19.502-19.493-51.227-0.002-70.719L74.9,295.66z"/>
<path d="M460.855,291.483c-1.709-3.347-5.149-5.454-8.907-5.454s-7.198,2.107-8.907,5.454l-44.557,87.295
	c-20.252,39.621,8.607,87.251,53.464,87.251c44.849,0,73.718-47.622,53.467-87.247L460.855,291.483z M451.948,446.029
	c-29.934,0-49.128-31.79-35.652-58.154l35.652-69.85l35.655,69.854C501.061,414.214,481.911,446.029,451.948,446.029z"/>
<path d="M350.671,189.588l-48.28-48.28c-3.906-3.905-10.236-3.905-14.143,0c-3.905,3.905-3.905,10.237,0,14.142l48.28,48.28
	c3.906,3.905,10.236,3.905,14.143,0C354.576,199.824,354.576,193.493,350.671,189.588z"/>
<g>
</g>
<g>
</g>
<g>
</g>
<g>
</g>
<g>
</g>
<g>
</g>
<g>
</g>
<g>
</g>
<g>
</g>
<g>
</g>
<g>
</g>
<g>
</g>
<g>
</g>
<g>
</g>
<g>
</g>
</svg>
